# xmcd
#
# Track frame offsets:
#	150
#	14922
#	32242
#	48307
#	64060
#	77140
#	93565
#	111197
#	129470
#	147042
#	169945
#	184982
#
# Disc length: 2711 seconds
# Revision: 4
# Processed by: cddbd v1.5.2PL0 Copyright (c) Steve Scherf et al.
# Submitted via: dBpowerAMP V12.0
#
DISCID=ab0a950c
DTITLE=Mary Chapin Carpenter - A Place in the World
DYEAR=1996
DGENRE=Country
TTITLE0=Keeping the Faith
TTITLE1=Hero in Your Own Hometown
TTITLE2=I Can See It Now
TTITLE3=I Want to Be Your Girlfriend
TTITLE4=Let Me into Your Heart
TTITLE5=What If We Went to Italy
TTITLE6=That's Real
TTITLE7=Ideas Are Like Stars
TTITLE8=Naked to the Eye
TTITLE9=Sudden Gift of Fate
TTITLE10=The Better to Dream of You
TTITLE11=A Place in the World
EXTD=
EXTT0=
EXTT1=
EXTT2=
EXTT3=
EXTT4=
EXTT5=
EXTT6=
EXTT7=
EXTT8=
EXTT9=
EXTT10=
EXTT11=
PLAYORDER=
